# xmcd CD database file
#
# Track frame offsets:
#	150
#	32760
#	47820
#	64632
#	92202
#	124090
#	136195
#	152202
#	182027
#	213720
#	248032
#
# Disc length: 3788 seconds
#
# Revision: 0
# Processed by: cddbd v1.5.2PL0 Copyright (c) Steve Scherf et al.
# Submitted via: CDex 1.51
#
DISCID=9b0eca0b
DTITLE=Michigan Street Blues Band - Live
DYEAR=1997
DGENRE=Blues
TTITLE0=Big Legs Tight Skirt
TTITLE1=Shake Your Money Maker
TTITLE2=Girl in Room 105
TTITLE3=Five Long Years
TTITLE4=Caldonia
TTITLE5=Four Stop Boogie
TTITLE6=The Love We Had
TTITLE7=What a Woman
TTITLE8=I'm Leav'in
TTITLE9=I'm a T-Man
TTITLE10=LaGrange
EXTD=YEAR: 1997
EXTT0=
EXTT1=
EXTT2=
EXTT3=
EXTT4=
EXTT5=
EXTT6=
EXTT7=
EXTT8=
EXTT9=
EXTT10=
PLAYORDER=
